<?xml version="1.0" encoding="UTF-8"?>
<svg width="163.69mm" height="163.07mm" enable-background="new" version="1.1" viewBox="0 0 163.68889 163.0656" xmlns="http://www.w3.org/2000/svg" xmlns:cc="http://creativecommons.org/ns#" xmlns:dc="http://purl.org/dc/elements/1.1/" xmlns:rdf="http://www.w3.org/1999/02/22-rdf-syntax-ns#">
<metadata>
<rdf:RDF>
<cc:Work rdf:about="">
<dc:format>image/svg+xml</dc:format>
<dc:type rdf:resource="http://purl.org/dc/dcmitype/StillImage"/>
<dc:title/>
</cc:Work>
</rdf:RDF>
</metadata>
<g transform="translate(-.10812 .13402)">
<path d="m9.9104 162.52c-3.6278-1.138-7.177-4.2958-8.8568-7.8797l-0.94546-2.0172v-142.52l1.1463-2.3431c1.4518-2.9675 4.5293-5.9066 7.3963-7.0638l2.0407-0.82366h142.89l2.3172 1.1408c2.8285 1.3925 5.6214 4.2308 6.9475 7.0604l0.95105 2.0294v142.54l-1.1408 2.3172c-1.3925 2.8285-4.2308 5.6214-7.0604 6.9475l-2.0294 0.95105-71.085 0.0664c-58.089 0.0542-71.356-0.0189-72.571-0.4zm78.494-18.92c17.924-1.9907 33.572-10.877 44.152-25.075 12.172-16.335 15.509-38.252 8.7942-57.772-1.5174-4.4113-5.2615-11.699-7.9884-15.55-3.0882-4.3608-10.612-11.888-14.897-14.903-14.382-10.121-32.27-13.773-49.669-10.14-22.32 4.6609-40.719 21.883-47.108 44.093-3.4041 11.833-3.0245 25.467 1.0405 37.365 1.2665 3.7068 4.2729 10.088 6.0624 12.867 3.536 5.492 8.6893 11.295 13.651 15.373 12.576 10.334 29.93 15.523 45.963 13.742zm-6.1041-18.229 0.22376-11.201 0.86064-0.11162 0.86064-0.11163 7e-3 8.7547c4e-3 4.8151 0.071 9.9056 0.14907 11.312l0.14186 2.5576h-2.4669l0.22375-11.201zm-8.6554 10.607c-0.0094-0.15841-0.0028-4.1774 0.01464-8.9311 0.0327-8.9043 0.26531-10.779 1.473-11.872 0.6392-0.57847 0.65419-0.30873 0.56322 10.137l-0.0935 10.731-0.97014 0.11163c-0.53357 0.0614-0.97784-0.018-0.98726-0.17639zm17.302-3.3748c-3.6e-4 -1.7948-0.10579-6.4998-0.23395-10.456-0.19733-6.0907-0.15716-7.167 0.26228-7.0272 0.27241 0.0908 0.81425 0.70798 1.2041 1.3715 0.64882 1.1043 0.71859 1.9494 0.82462 9.9879 0.12169 9.2253 0.0998 9.3676-1.4387 9.3811-0.5438 5e-3 -0.61747-0.38346-0.61829-3.2578zm-27.648 0.78557c-16.359-6.0787-28.518-18.676-33.962-35.188-0.80225-2.4332-1.1836-4.0988-0.98276-4.2928 0.50733-0.4901 8.6394-1.3862 13.646-1.5037l4.4979-0.10554 1.8521 2.459c3.3033 4.3858 7.8922 7.3451 14.245 9.186 2.596 0.75228 8.5759 1.9304 9.8244 1.9356 0.18973 7e-4 -0.23558 0.47995-0.94514 1.0648-1.2177 1.0037-3.4568 4.8202-3.4568 5.8919 0 0.85443-3.1502 1.9718-6.0419 2.1431-4.5257 0.26808-7.6539-1.3085-10.241-5.1613-3.0542-4.5483-7.4708-7.1491-10.308-6.0704-1.231 0.46804-1.1679 1.1958 0.19047 2.1946 3.0323 2.2297 5.0686 4.7232 6.931 8.4873 1.4063 2.8422 2.2488 4.0938 3.3795 5.0203 3.172 2.5992 7.6399 3.694 12.383 3.0343 1.4849-0.20653 2.8472-0.37552 3.0271-0.37552 0.35967 0 0.46401 10.875 0.11312 11.789-0.29378 0.76559-0.93322 0.68727-4.1513-0.50849zm35.763-8.5701c0-11.937-0.45892-14.146-3.6183-17.419-1.6189-1.677-1.7072-1.5878 2.0308-2.0535 7.5513-0.94095 15.494-4.5156 18.654-8.3951 1.6202-1.9891 3.2629-4.8384 3.5542-6.1649 0.13107-0.59674 0.45111-1.2616 0.7112-1.4774 0.53291-0.44227 14.316-0.96383 15.777-0.59703 0.87493 0.21959 0.88819 0.26894 0.5595 2.0821-0.18517 1.0215-0.36235 1.8772-0.39374 1.9015-0.0314 0.0244-1.2477-0.16777-2.7029-0.42697-1.578-0.28108-4.9239-0.45276-8.2903-0.42539l-5.6444 0.0459 6.7028 0.27716c3.6865 0.15244 7.3378 0.40953 8.1139 0.57131 1.2997 0.27092 1.4072 0.38149 1.3619 1.4008-0.11187 2.5172-3.038 10.001-5.7772 14.776-4.7115 8.2129-12.06 15.562-20.333 20.333-3.0632 1.7669-9.2183 4.5018-10.131 4.5018-0.51569 0-0.57451-0.91427-0.57451-8.931zm-41.238-7.6193c-0.68326-0.43264-0.21524-1.4413 0.66877-1.4413s1.352 1.0087 0.66877 1.4413c-0.27081 0.17148-0.57175 0.31178-0.66877 0.31178-0.09701 0-0.39796-0.1403-0.66877-0.31178zm3.3315-0.15062c-0.54634-0.39949-0.55317-0.49283-0.06568-0.89741 0.62836-0.52149 1.6902-0.4092 1.8931 0.2002 0.23181 0.69627-1.1222 1.2129-1.8274 0.69721zm3.4135-0.6473c-0.47415-0.47414 0.0466-1.3489 0.803-1.3489 0.7564 0 1.2771 0.8748 0.803 1.3489-0.22822 0.22822-0.58957 0.41495-0.803 0.41495-0.21343 0-0.57478-0.18673-0.803-0.41495zm-10.548-0.85538c-0.18509-0.48235 0.37598-1.1883 0.94442-1.1883 0.09701 0 0.39796 0.14029 0.66877 0.31177 0.68326 0.43264 0.21524 1.4413-0.66877 1.4413-0.40023 0-0.82522-0.25415-0.94442-0.56477zm-2.4135-1.9152c-0.13722-0.22203-0.08969-0.5635 0.10563-0.75881 0.50116-0.50116 1.6648-0.20659 1.6648 0.42143 0 0.63424-1.4197 0.90479-1.7704 0.33738zm-1.8153-2.3062c-0.29589-0.77108 0.37207-1.3268 1.2571-1.0459 0.87281 0.27701 0.97886 1.0792 0.18305 1.3846-0.87572 0.33605-1.2115 0.25706-1.4402-0.33874zm-1.759-2.4566c-0.25124-0.65473 0.45632-1.2758 1.2877-1.1304 0.29104 0.0509 0.52917 0.40791 0.52917 0.79331 0 0.90612-1.4923 1.183-1.8169 0.33708zm-1.7688-2.1295c-0.29589-0.77108 0.37207-1.3268 1.2571-1.0459 0.87281 0.27702 0.97886 1.0793 0.18304 1.3846-0.87572 0.33605-1.2115 0.25706-1.4402-0.33874zm-3.1236-1.5743c-0.13724-0.22206-0.09116-0.56209 0.10239-0.75564 0.51369-0.51369 2.0208-0.20539 2.0208 0.41338 0 0.63997-1.7635 0.92425-2.1232 0.34226zm-15.26-12.285c-0.11254-0.29327-0.21618-1.1789-0.2303-1.968l-0.02568-1.4348 3.5278-0.27884c1.9403-0.15335 5.0359-0.19592 6.8792-0.0946 1.8433 0.10134 4.2449 0.18713 5.3371 0.19065 1.8759 6e-3 2.0102 0.0655 2.4287 1.076 0.24368 0.58831 0.3727 1.14 0.2867 1.226s-3.0046 0.32531-6.4857 0.5318c-3.4811 0.20648-7.4957 0.58005-8.9212 0.83016-2.2678 0.39787-2.6175 0.38806-2.7965-0.0785zm-0.99124-6.381c-0.39587-3.6962 0.08903-12.521 0.89662-16.318 4.5779-21.524 21.429-38.377 42.984-42.988 4.3695-0.93479 13.747-1.3023 18.238-0.71476 12.475 1.6321 23.798 7.268 32.632 16.242 7.4424 7.5604 12.582 17.195 14.824 27.791 0.80648 3.8114 1.3005 13.695 0.81011 16.208l-0.28792 1.4758-8.2349 0.16536-8.2349 0.16536 0.24509-1.2884c0.66433-3.4922 0.86521-5.9507 0.87171-10.669 0.0108-7.8227-1.3857-12.363-5.2891-17.196l-1.805-2.2349 0.37557-1.7512c0.70127-3.2699 0.35201-7.7751-0.90566-11.682l-0.53937-1.6757h-1.8479c-1.0163 0-2.7101 0.25501-3.764 0.56669-2.1548 0.63729-6.7122 2.8253-9.2312 4.432l-1.6706 1.0656-3.4446-0.65088c-6.565-1.2405-20.969-0.71638-25.272 0.91955-0.66486 0.25278-1.3674-0.02293-3.7821-1.4842-3.8124-2.3072-7.9768-4.0065-11.153-4.5512-3.1191-0.53486-3.3429-0.38411-4.1552 2.7989-0.9415 3.6894-1.0803 7.6414-0.37898 10.794l0.60104 2.7016-1.0425 1.3174c-1.7524 2.2144-3.5141 5.7588-4.3372 8.7257-1.0572 3.811-1.0538 10.421 0.0081 15.586 0.40609 1.9754 0.8187 3.801 0.91693 4.0569 0.14499 0.37781-1.5114 0.46538-8.8025 0.46538h-8.9811l-0.24341-2.2728z" fill="#f78083" stroke-width=".35278"/>
</g>
</svg>
